<svg xmlns="http://www.w3.org/2000/svg" xmlns:xlink="http://www.w3.org/1999/xlink" width="500" zoomAndPan="magnify" viewBox="0 0 375 374.999991" height="500" preserveAspectRatio="xMidYMid meet" version="1.0"><defs><clipPath id="86dcd2752a"><path d="M 156.40625 261.550781 L 218.65625 261.550781 L 218.65625 337.300781 L 156.40625 337.300781 Z M 156.40625 261.550781 " clip-rule="nonzero"/></clipPath><clipPath id="9b35632218"><path d="M 34 0 L 340.734375 0 L 340.734375 375 L 34 375 Z M 34 0 " clip-rule="nonzero"/></clipPath></defs><g clip-path="url(#86dcd2752a)"><path fill="#000000" d="M 187.53125 261.550781 L 156.425781 275.324219 L 156.425781 295.980469 C 156.425781 322.941406 178.679688 335.53125 187.53125 337.300781 C 196.382812 335.53125 218.636719 322.941406 218.636719 295.980469 L 218.636719 275.324219 Z M 187.53125 269.089844 L 211.726562 279.800781 L 211.726562 295.980469 C 211.726562 317.101562 195.1875 327.847656 187.53125 330.199219 C 179.878906 327.847656 163.339844 317.101562 163.339844 295.980469 L 163.339844 279.800781 Z M 204.097656 284.945312 L 184.078125 304.886719 L 174.496094 295.34375 L 169.609375 300.210938 L 184.078125 314.625 L 208.976562 289.808594 Z M 204.097656 284.945312 " fill-opacity="1" fill-rule="nonzero"/></g><path fill="#111827" d="M 189.210938 351.800781 L 153.082031 327.839844 C 91.085938 285.625 53.054688 215.644531 53.054688 141.480469 L 53.054688 93.558594 C 95.269531 87.476562 135.207031 69.597656 169.054688 41.457031 L 186.929688 25.480469 L 204.804688 41.457031 C 236.753906 69.597656 276.6875 87.476562 318.902344 93.558594 L 320.804688 93.558594 L 320.804688 141.480469 C 320.804688 215.644531 284.671875 285.625 220.777344 327.839844 Z M 189.210938 351.800781 " fill-opacity="1" fill-rule="nonzero"/><g clip-path="url(#9b35632218)"><path fill="#030712" d="M 142.8125 343.433594 C 74.734375 297.414062 34.417969 221.730469 34.417969 141.480469 L 34.417969 76.824219 L 50.394531 74.542969 C 88.804688 69.21875 125.316406 52.484375 156.882812 27.003906 L 187.308594 0 L 218.117188 27.382812 C 247.019531 52.484375 282.390625 68.839844 320.804688 74.542969 L 340.582031 74.542969 L 340.582031 141.480469 C 340.582031 223.25 300.265625 298.554688 232.570312 343.050781 L 189.972656 375 Z M 142.8125 343.433594 " fill-opacity="1" fill-rule="nonzero"/></g><path fill="#111827" d="M 189.210938 351.800781 L 153.082031 327.839844 C 91.085938 285.625 53.054688 215.644531 53.054688 141.480469 L 53.054688 93.558594 C 95.269531 87.476562 135.207031 69.597656 169.054688 41.457031 L 186.929688 25.480469 L 204.804688 41.457031 C 236.753906 69.597656 276.6875 87.476562 318.902344 93.558594 L 320.804688 93.558594 L 320.804688 141.480469 C 320.804688 215.644531 284.671875 285.625 220.777344 327.839844 Z M 189.210938 351.800781 " fill-opacity="1" fill-rule="nonzero"/><path fill="#ffffff" d="M 179.324219 237.703125 C 179.324219 237.703125 177.421875 237.703125 179.324219 237.703125 C 173.238281 237.703125 169.433594 235.800781 165.25 231.617188 L 119.230469 187.5 C 113.148438 181.414062 113.148438 169.625 119.230469 163.539062 C 125.316406 157.453125 137.105469 157.453125 143.191406 163.539062 L 177.042969 193.585938 L 235.230469 137.675781 C 241.316406 131.59375 253.105469 131.59375 259.191406 137.675781 C 265.277344 143.761719 265.277344 155.554688 259.191406 161.636719 L 189.210938 233.519531 C 187.308594 235.800781 183.125 237.703125 179.324219 237.703125 Z M 179.324219 237.703125 " fill-opacity="1" fill-rule="nonzero"/></svg>